HIERARCHY
ROOT joint_Root
{
	OFFSET 0.0 0.0 0.0
	CHANNELS 6 Xposition Yposition Zposition Zrotation Xrotation Yrotation 
	JOINT Hips
	{
		OFFSET -0.726466 93.3139 -2.00062
		CHANNELS 6 Xposition Yposition Zposition Zrotation Xrotation Yrotation 
		JOINT Spine
		{
			OFFSET 15.7357 0.0 0.0
			CHANNELS 6 Xposition Yposition Zposition Zrotation Xrotation Yrotation 
			JOINT Chest
			{
				OFFSET 8.98455 -0.406207 0.0
				CHANNELS 6 Xposition Yposition Zposition Zrotation Xrotation Yrotation 
				JOINT Neck
				{
					OFFSET 16.3773 0.0 0.0
					CHANNELS 6 Xposition Yposition Zposition Zrotation Xrotation Yrotation 
					JOINT Head
					{
						OFFSET 6.45672 0.0 0.0
						CHANNELS 6 Xposition Yposition Zposition Zrotation Xrotation Yrotation 
						End Site
						{
							OFFSET 0.0 0.0 0.0
						}
					}
				}
				JOINT Shoulder_L
				{
					OFFSET 12.9942 -0.242716 4.98039
					CHANNELS 6 Xposition Yposition Zposition Zrotation Xrotation Yrotation 
					JOINT UpperArm_L
					{
						OFFSET 5.34809 0.0 0.0
						CHANNELS 6 Xposition Yposition Zposition Zrotation Xrotation Yrotation 
						JOINT LowerArm_L
						{
							OFFSET 24.3286 1.87007e-05 0.0
							CHANNELS 6 Xposition Yposition Zposition Zrotation Xrotation Yrotation 
							JOINT Hand_L
							{
								OFFSET 22.2916 0.0 0.0
								CHANNELS 6 Xposition Yposition Zposition Zrotation Xrotation Yrotation 
								End Site
								{
									OFFSET 0.0 0.0 0.0
								}
							}
						}
					}
				}
				JOINT Shoulder_R
				{
					OFFSET 12.9945 -0.242716 -4.98039
					CHANNELS 6 Xposition Yposition Zposition Zrotation Xrotation Yrotation 
					JOINT UpperArm_R
					{
						OFFSET -5.34813 0.0 0.0
						CHANNELS 6 Xposition Yposition Zposition Zrotation Xrotation Yrotation 
						JOINT LowerArm_R
						{
							OFFSET -24.3289 0.000322201 0.0
							CHANNELS 6 Xposition Yposition Zposition Zrotation Xrotation Yrotation 
							JOINT Hand_R
							{
								OFFSET -22.2915 -0.000108084 0.0
								CHANNELS 6 Xposition Yposition Zposition Zrotation Xrotation Yrotation 
								End Site
								{
									OFFSET 0.0 0.0 0.0
								}
							}
						}
					}
				}
			}
		}
		JOINT UpperLeg_L
		{
			OFFSET -2.19248 -6.46944 0.0
			CHANNELS 6 Xposition Yposition Zposition Zrotation Xrotation Yrotation 
			JOINT LowerLeg_L
			{
				OFFSET 39.0811 0.0 -1.23785e-05
				CHANNELS 6 Xposition Yposition Zposition Zrotation Xrotation Yrotation 
				JOINT Foot_L
				{
					OFFSET 40.9854 0.0 -1.26872e-05
					CHANNELS 6 Xposition Yposition Zposition Zrotation Xrotation Yrotation 
					JOINT Toes_L
					{
						OFFSET 11.7543 0.0 0.0
						CHANNELS 6 Xposition Yposition Zposition Zrotation Xrotation Yrotation 
						End Site
						{
							OFFSET 0.0 0.0 0.0
						}
					}
				}
			}
		}
		JOINT UpperLeg_R
		{
			OFFSET -2.19251 6.46944 0.0
			CHANNELS 6 Xposition Yposition Zposition Zrotation Xrotation Yrotation 
			JOINT LowerLeg_R
			{
				OFFSET -39.0811 -0.00228153 -0.0401928
				CHANNELS 6 Xposition Yposition Zposition Zrotation Xrotation Yrotation 
				JOINT Foot_R
				{
					OFFSET -40.9854 0.0 0.0
					CHANNELS 6 Xposition Yposition Zposition Zrotation Xrotation Yrotation 
					JOINT Toes_R
					{
						OFFSET -11.7543 0.0 0.0
						CHANNELS 6 Xposition Yposition Zposition Zrotation Xrotation Yrotation 
						End Site
						{
							OFFSET 0.0 0.0 0.0
						}
					}
				}
			}
		}
	}
}
MOTION
Frames:	6
Frame Time:	0.0333333
0.000000 0.000000 0.000000 0.000000 0.000000 -0.000000 -0.305199 92.272300 -2.672380 87.215800 -2.153620 2.314180 15.735700 0.000005 -0.000001 99.348400 86.607000 -101.309000 8.984550 -0.406207 -0.000000 -1.045800 1.252730 -3.907550 16.377300 -0.000001 -0.000001 -0.005449 -1.725440 0.581944 6.456720 -0.000001 -0.000000 -2.944010 -1.640960 1.144940 12.994200 -0.242716 4.980390 -88.252400 -4.982790 -70.645000 5.348090 -0.000007 -0.000001 24.528700 73.136400 -73.303400 24.328600 0.000019 0.000005 13.467000 0.819203 -86.583300 22.291600 -0.000001 0.000005 40.408500 5.563710 -32.870600 12.994500 -0.242716 -4.980390 90.675200 -1.644160 -67.670900 -5.348130 -0.000001 -0.000004 -42.501500 -53.700900 -86.591300 -24.328900 0.000322 -0.000009 4.096990 1.916160 -64.983800 -22.291500 -0.000108 -0.000004 28.292500 5.523730 -7.522260 -2.192480 -6.469440 -0.000000 -168.517000 -16.516600 -3.828870 39.081100 -0.000007 -0.000012 -0.169443 0.450025 20.632500 40.985400 -0.000006 -0.000013 -6.164140 3.237600 -62.408700 11.754300 -0.000000 0.000003 -0.000126 -0.001256 -16.625500 -2.192510 6.469440 -0.000001 175.437000 19.515900 177.282000 -39.081100 -0.002282 -0.040193 0.035747 -0.096762 18.525100 -40.985400 0.000008 0.000006 -0.807549 3.064170 -61.642500 -11.754300 -0.000006 -0.000006 -0.006147 -0.072168 -19.510300
0.000000 0.000000 0.000000 0.000000 0.000000 -0.000000 -0.311227 92.270300 -2.663530 87.192200 -2.090920 2.254670 15.735700 0.000005 -0.000001 98.851500 86.607100 -100.782000 8.984550 -0.406207 -0.000000 -1.038060 1.192220 -3.849600 16.377300 -0.000001 -0.000001 0.010629 -1.771580 0.580583 6.456720 -0.000001 -0.000000 -2.986960 -1.636960 1.151250 12.994200 -0.242716 4.980390 -88.258200 -4.967970 -70.651200 5.348090 -0.000007 -0.000001 24.813400 73.138000 -73.568800 24.328600 0.000019 0.000005 13.435800 0.820208 -86.570900 22.291600 -0.000001 0.000005 40.448100 5.564500 -32.830700 12.994500 -0.242716 -4.980390 90.681100 -1.657220 -67.654500 -5.348130 -0.000001 -0.000004 -42.541500 -53.780500 -86.644300 -24.328900 0.000322 -0.000009 4.108140 1.921490 -64.982700 -22.291500 -0.000108 -0.000004 28.251000 5.523570 -7.515400 -2.192480 -6.469440 -0.000000 -168.495000 -16.536100 -3.907820 39.081100 -0.000007 -0.000012 -0.170161 0.451439 20.653200 40.985400 -0.000006 -0.000013 -6.159520 3.328310 -62.410300 11.754300 -0.000000 0.000003 -0.000125 -0.001241 -16.624900 -2.192510 6.469440 -0.000001 175.489000 19.571000 177.246000 -39.081100 -0.002282 -0.040193 0.036848 -0.100150 18.507100 -40.985400 0.000008 0.000006 -0.743525 3.053520 -61.675900 -11.754300 -0.000006 -0.000006 -0.006302 -0.073558 -19.567000
0.000000 0.000000 0.000000 0.000000 0.000000 -0.000000 -0.301349 92.284000 -2.641890 87.217000 -2.048390 2.221950 15.735700 0.000005 -0.000001 98.637900 86.606900 -100.565000 8.984550 -0.406207 -0.000000 -1.034240 1.166960 -3.842900 16.377300 -0.000001 -0.000001 0.017032 -1.776600 0.584976 6.456720 -0.000001 -0.000000 -2.951790 -1.668720 1.180930 12.994200 -0.242716 4.980390 -88.267400 -4.948980 -70.677000 5.348090 -0.000007 -0.000001 25.067100 73.127500 -73.757100 24.328600 0.000019 0.000005 13.290100 0.803425 -86.602800 22.291600 -0.000001 0.000005 40.304800 5.562150 -32.948400 12.994500 -0.242716 -4.980390 90.693700 -1.682970 -67.593500 -5.348130 -0.000001 -0.000004 -42.637400 -53.806400 -86.677800 -24.328900 0.000322 -0.000009 4.111700 1.918240 -65.038900 -22.291500 -0.000108 -0.000004 28.282600 5.523470 -7.510690 -2.192480 -6.469440 -0.000000 -168.549000 -16.529100 -3.887350 39.081100 -0.000007 -0.000012 -0.167069 0.445829 20.543100 40.985400 -0.000006 -0.000013 -6.145070 3.329810 -62.364500 11.754300 -0.000000 0.000003 -0.000134 -0.001317 -16.627800 -2.192510 6.469440 -0.000001 175.462000 19.560000 177.248000 -39.081100 -0.002282 -0.040193 0.035945 -0.097727 18.458600 -40.985400 0.000008 0.000006 -0.811380 2.994710 -61.596400 -11.754300 -0.000006 -0.000006 -0.006193 -0.072579 -19.527100
0.000000 0.000000 0.000000 0.000000 0.000000 -0.000000 -0.305359 92.276000 -2.626940 87.248900 -2.009580 2.211400 15.735700 0.000005 -0.000001 98.210800 86.593200 -100.144000 8.984550 -0.406207 -0.000000 -1.000470 1.120700 -3.855050 16.377300 -0.000001 -0.000001 0.028335 -1.816700 0.636785 6.456720 -0.000001 -0.000000 -2.962350 -1.680380 1.160410 12.994200 -0.242716 4.980390 -88.261600 -4.953510 -70.633900 5.348090 -0.000007 -0.000001 25.304100 73.060400 -73.984400 24.328600 0.000019 0.000005 13.224700 0.802822 -86.588000 22.291600 -0.000001 0.000005 40.314800 5.560710 -33.018800 12.994500 -0.242716 -4.980390 90.697200 -1.690340 -67.582400 -5.348130 -0.000001 -0.000004 -42.739000 -53.893300 -86.714300 -24.328900 0.000322 -0.000009 4.134050 1.927760 -65.049600 -22.291500 -0.000108 -0.000004 28.297400 5.524320 -7.547460 -2.192480 -6.469440 -0.000000 -168.576000 -16.593500 -3.913320 39.081100 -0.000007 -0.000012 -0.166616 0.443833 20.576500 40.985400 -0.000006 -0.000013 -6.129270 3.419490 -62.377000 11.754300 -0.000000 0.000003 -0.000128 -0.001269 -16.626000 -2.192510 6.469440 -0.000001 175.434000 19.592700 177.266000 -39.081100 -0.002282 -0.040193 0.036820 -0.100387 18.452100 -40.985400 0.000008 0.000006 -0.786912 2.951700 -61.694000 -11.754300 -0.000006 -0.000006 -0.006447 -0.074840 -19.619300
0.000000 0.000000 0.000000 0.000000 0.000000 -0.000000 -0.309586 92.280000 -2.601770 87.241000 -1.990650 2.186490 15.735700 0.000005 -0.000001 98.106800 86.585300 -100.028000 8.984550 -0.406207 -0.000000 -0.983458 1.109530 -3.832290 16.377300 -0.000001 -0.000001 0.074768 -1.821970 0.628937 6.456720 -0.000001 -0.000000 -2.945430 -1.731250 1.176190 12.994200 -0.242716 4.980390 -88.268400 -4.944210 -70.670100 5.348090 -0.000007 -0.000001 25.409800 73.079500 -74.072800 24.328600 0.000019 0.000005 13.265500 0.808417 -86.575200 22.291600 -0.000001 0.000005 40.456800 5.561770 -32.966500 12.994500 -0.242716 -4.980390 90.701700 -1.694390 -67.499900 -5.348130 -0.000001 -0.000004 -42.972500 -53.917300 -86.912500 -24.328900 0.000322 -0.000009 3.978500 1.859760 -64.993400 -22.291500 -0.000108 -0.000004 28.203700 5.526510 -7.642220 -2.192480 -6.469440 -0.000000 -168.560000 -16.593000 -3.892740 39.081100 -0.000007 -0.000012 -0.167882 0.448486 20.522600 40.985400 -0.000006 -0.000013 -6.142130 3.433220 -62.366500 11.754300 -0.000000 0.000003 -0.000134 -0.001322 -16.628000 -2.192510 6.469440 -0.000001 175.444000 19.588400 177.265000 -39.081100 -0.002282 -0.040193 0.036506 -0.099503 18.442200 -40.985400 0.000008 0.000006 -0.814100 2.947640 -61.666800 -11.754300 -0.000006 -0.000006 -0.006336 -0.073861 -19.579400
0.000000 0.000000 0.000000 0.000000 0.000000 -0.000000 -0.319298 92.275900 -2.579250 87.247300 -2.003190 2.202930 15.735700 0.000005 -0.000001 98.013500 86.561300 -99.932400 8.984550 -0.406207 -0.000000 -0.934448 1.104180 -3.827270 16.377300 -0.000001 -0.000001 0.152241 -1.851660 0.638242 6.456720 -0.000001 -0.000000 -2.979340 -1.745800 1.194850 12.994200 -0.242716 4.980390 -88.279000 -4.912090 -70.663900 5.348090 -0.000007 -0.000001 25.405600 73.081900 -74.030500 24.328600 0.000019 0.000005 13.163000 0.802690 -86.572000 22.291600 -0.000001 0.000005 40.436900 5.559280 -33.089300 12.994500 -0.242716 -4.980390 90.706500 -1.702290 -67.456600 -5.348130 -0.000001 -0.000004 -43.186200 -53.958100 -87.066600 -24.328900 0.000322 -0.000009 4.015180 1.878170 -64.979200 -22.291500 -0.000108 -0.000004 28.167000 5.526310 -7.633780 -2.192480 -6.469440 -0.000000 -168.561000 -16.555600 -3.868690 39.081100 -0.000007 -0.000012 -0.167478 0.447027 20.538600 40.985400 -0.000006 -0.000013 -6.154670 3.383910 -62.392100 11.754300 -0.000000 0.000003 -0.000126 -0.001255 -16.625400 -2.192510 6.469440 -0.000001 175.428000 19.598600 177.293000 -39.081100 -0.002282 -0.040193 0.036319 -0.098878 18.453500 -40.985400 0.000008 0.000006 -0.826679 2.979600 -61.701500 -11.754300 -0.000006 -0.000006 -0.006153 -0.072221 -19.512500
